<svg width="116" height="72" viewBox="0 0 116 72" fill="none" xmlns="http://www.w3.org/2000/svg">
<path d="M18.3139 14.4C20.4203 14.4 22.1278 16.1165 22.1278 18.2338V47.0098C22.1278 47.9211 22.6182 48.7611 23.4096 49.2055C24.9338 50.0616 26.7907 50.0616 28.315 49.2055C29.1064 48.7611 29.5967 47.9211 29.5967 47.0097V18.2338C29.5967 16.1165 31.3043 14.4 33.4106 14.4C35.517 14.4 37.2246 16.1165 37.2246 18.2338V47.0097C37.2246 50.6991 35.2394 54.0999 32.0354 55.8993C28.1991 58.0539 23.5255 58.0539 19.6892 55.8993C16.4852 54.0999 14.5 50.6991 14.5 47.0098V18.2338C14.5 16.1165 16.2075 14.4 18.3139 14.4Z" fill="#E83388"/>
<path d="M51.2525 17.8419C51.0572 15.9086 49.433 14.4 47.4583 14.4C45.3519 14.4 43.6444 16.1165 43.6444 18.2338L43.6444 53.7662C43.6444 55.8836 45.3519 57.6 47.4583 57.6C49.5647 57.6 51.2722 55.8836 51.2722 53.7662V39.1196C52.3245 39.4571 53.4458 39.6393 54.6094 39.6393C60.6652 39.6393 65.5744 34.7045 65.5744 28.6171V18.2338C65.5744 16.1165 63.8668 14.4 61.7605 14.4C59.6541 14.4 57.9466 16.1165 57.9466 18.2338V28.6171C57.9466 30.4698 56.4525 31.9717 54.6094 31.9717C52.7663 31.9717 51.2722 30.4698 51.2722 28.6171V18.2338C51.2722 18.1015 51.2655 17.9707 51.2525 17.8419Z" fill="#E83388"/>
<path d="M78.7577 18.2338C78.7577 16.1165 77.0502 14.4 74.9438 14.4C72.8374 14.4 71.1299 16.1165 71.1299 18.2338V53.7662C71.1299 55.8836 72.8374 57.6 74.9438 57.6C77.0502 57.6 78.7577 55.8836 78.7577 53.7662V39.6393L97.6861 39.6393C99.7925 39.6393 101.5 37.9229 101.5 35.8055C101.5 33.6882 99.7925 31.9717 97.6861 31.9717H94.3103C91.5896 31.9717 89.384 29.7546 89.384 27.0197C89.384 24.2848 91.5896 22.0677 94.3104 22.0677H95.4632C97.5695 22.0677 99.2771 20.3512 99.2771 18.2338C99.2771 16.1165 97.5695 14.4 95.4632 14.4L94.3104 14.4C87.3769 14.4 81.7562 20.05 81.7562 27.0197C81.7562 28.7775 82.1137 30.4513 82.7597 31.9717H78.7577V18.2338Z" fill="#E83388"/>
</svg>
