<svg width="1920" height="1172" viewBox="0 0 1920 1172" fill="none" xmlns="http://www.w3.org/2000/svg">
<g clip-path="url(#clip0_2223_890)">
<g opacity="0.4">
<mask id="mask0_2223_890" style="mask-type:alpha" maskUnits="userSpaceOnUse" x="328" y="3" width="1074" height="1298">
<rect x="1289.73" y="1300.49" width="965.079" height="1213.44" transform="rotate(-174.698 1289.73 1300.49)" fill="url(#paint0_linear_2223_890)"/>
</mask>
<g mask="url(#mask0_2223_890)">
<path d="M530.34 447.271C548.508 251.504 721.937 107.532 917.704 125.7C1113.47 143.868 1257.44 317.297 1239.28 513.064C1221.11 708.832 1072.16 589.014 876.392 570.846C680.625 552.677 512.171 643.038 530.34 447.271Z" fill="#579AFF"/>
<g filter="url(#filter0_f_2223_890)">
<path d="M530.998 440.203C545.061 288.662 715.163 180.542 910.93 198.711C1106.7 216.879 1254 354.455 1239.93 505.996C1225.87 657.537 1055.77 765.656 860.001 747.488C664.233 729.32 516.934 591.744 530.998 440.203Z" fill="#579AFF"/>
</g>
<g filter="url(#filter1_f_2223_890)">
<ellipse cx="884.155" cy="487.228" rx="355.991" ry="275.568" transform="rotate(-174.698 884.155 487.228)" fill="#579AFF"/>
</g>
<g filter="url(#filter2_f_2223_890)">
<ellipse cx="880.547" cy="526.096" rx="355.991" ry="276.751" transform="rotate(-174.698 880.547 526.096)" fill="#579AFF"/>
</g>
<g filter="url(#filter3_f_2223_890)">
<ellipse cx="869.728" cy="642.678" rx="355.991" ry="275.568" transform="rotate(-174.698 869.728 642.678)" fill="#579AFF"/>
</g>
<g filter="url(#filter4_f_2223_890)">
<ellipse cx="855.083" cy="800.481" rx="299.222" ry="275.568" transform="rotate(-174.698 855.083 800.481)" fill="#579AFF"/>
</g>
</g>
<mask id="mask1_2223_890" style="mask-type:alpha" maskUnits="userSpaceOnUse" x="-210" y="-197" width="1513" height="1398">
<rect x="210.266" y="1200.31" width="965.079" height="1213.44" transform="rotate(-115.786 210.266 1200.31)" fill="url(#paint1_linear_2223_890)"/>
</mask>
<g mask="url(#mask1_2223_890)">
<path d="M548.821 109.421C725.852 23.8934 938.698 98.0709 1024.23 275.102C1109.75 452.132 1035.58 664.978 858.545 750.506C681.515 836.034 707.212 646.61 621.684 469.58C536.156 292.549 371.791 194.949 548.821 109.421Z" fill="#FF4D4F"/>
<g filter="url(#filter5_f_2223_890)">
<path d="M555.211 106.334C692.248 40.1278 872.672 129.969 958.2 307C1043.73 484.03 1001.97 681.212 864.935 747.419C727.898 813.625 547.473 723.783 461.945 546.753C376.417 369.722 418.174 172.54 555.211 106.334Z" fill="#FF4D4F"/>
</g>
<g filter="url(#filter6_f_2223_890)">
<ellipse cx="697.293" cy="433.053" rx="355.991" ry="275.568" transform="rotate(-115.786 697.293 433.053)" fill="#FF4D4F"/>
</g>
<g filter="url(#filter7_f_2223_890)">
<ellipse cx="662.152" cy="450.028" rx="355.991" ry="276.75" transform="rotate(-115.786 662.152 450.028)" fill="#FF4D4F"/>
</g>
<g filter="url(#filter8_f_2223_890)">
<ellipse cx="556.723" cy="500.963" rx="355.991" ry="275.568" transform="rotate(-115.786 556.723 500.963)" fill="#FF4D4F"/>
</g>
<g filter="url(#filter9_f_2223_890)">
<ellipse cx="414.023" cy="569.906" rx="299.222" ry="275.568" transform="rotate(-115.786 414.023 569.906)" fill="#FF4D4F"/>
</g>
</g>
</g>
<g opacity="0.4">
<mask id="mask2_2223_890" style="mask-type:alpha" maskUnits="userSpaceOnUse" x="-160" y="-18" width="1501" height="533">
<rect x="-159.607" y="375.887" width="394.765" height="1469.55" transform="rotate(-84.5825 -159.607 375.887)" fill="url(#paint2_linear_2223_890)"/>
</mask>
<g mask="url(#mask2_2223_890)">
<path d="M812.316 124.978C1049.36 147.458 1235.36 230.585 1227.77 310.649C1220.17 390.712 1021.86 437.393 784.82 414.913C547.78 392.433 681.181 339.596 688.773 259.533C696.366 179.47 575.277 102.498 812.316 124.978Z" fill="#57AEFF"/>
<g filter="url(#filter10_f_2223_890)">
<path d="M820.876 125.791C1004.37 143.192 1146.96 222.203 1139.36 302.267C1131.77 382.33 976.869 433.128 793.38 415.726C609.891 398.325 467.298 319.314 474.891 239.251C482.484 159.187 637.387 108.39 820.876 125.791Z" fill="#57AEFF"/>
</g>
<g filter="url(#filter11_f_2223_890)">
<ellipse cx="790.02" cy="269.136" rx="145.618" ry="333.728" transform="rotate(-84.5825 790.02 269.136)" fill="#57AEFF"/>
</g>
<g filter="url(#filter12_f_2223_890)">
<ellipse cx="742.958" cy="264.672" rx="145.618" ry="335.16" transform="rotate(-84.5825 742.958 264.672)" fill="#57AEFF"/>
</g>
<g filter="url(#filter13_f_2223_890)">
<ellipse cx="601.797" cy="251.286" rx="145.618" ry="333.728" transform="rotate(-84.5825 601.797 251.286)" fill="#57AEFF"/>
</g>
<g filter="url(#filter14_f_2223_890)">
<ellipse cx="410.726" cy="233.166" rx="122.397" ry="333.728" transform="rotate(-84.5825 410.726 233.166)" fill="#57AEFF"/>
</g>
</g>
<mask id="mask3_2223_890" style="mask-type:alpha" maskUnits="userSpaceOnUse" x="-118" y="-175" width="1731" height="605">
<rect width="1021.29" height="869.477" transform="matrix(0.994335 -0.106288 0.822244 0.569136 -117.737 -65.5823)" fill="url(#paint3_linear_2223_890)"/>
</mask>
<g mask="url(#mask3_2223_890)">
<path d="M1220.45 158.418C1336.35 238.59 1262.57 321.49 1055.65 343.58C848.736 365.671 587.047 318.587 471.151 238.415C355.255 158.244 585.206 183.372 792.12 161.282C999.035 139.191 1104.56 78.2465 1220.45 158.418Z" fill="#4A46FF"/>
<g filter="url(#filter15_f_2223_890)">
<path d="M1224.64 161.312C1314.35 223.372 1219.34 291.589 1012.43 313.68C805.513 335.77 565.048 303.369 475.334 241.309C385.621 179.249 480.631 111.032 687.546 88.9412C894.46 66.8506 1134.92 99.252 1224.64 161.312Z" fill="#4A46FF"/>
</g>
<g filter="url(#filter16_f_2223_890)">
<ellipse cx="376.724" cy="197.454" rx="376.724" ry="197.454" transform="matrix(0.994499 -0.106175 0.822675 0.569089 304.524 123.152)" fill="#4A46FF"/>
</g>
<g filter="url(#filter17_f_2223_890)">
<ellipse cx="376.724" cy="198.302" rx="376.724" ry="198.302" transform="matrix(0.994499 -0.106175 0.822675 0.569089 280.824 106.755)" fill="#4A46FF"/>
</g>
<g filter="url(#filter18_f_2223_890)">
<ellipse cx="376.724" cy="197.454" rx="376.724" ry="197.454" transform="matrix(0.994499 -0.106175 0.822675 0.569089 212.5 59.4927)" fill="#4A46FF"/>
</g>
<g filter="url(#filter19_f_2223_890)">
<ellipse cx="316.649" cy="197.454" rx="316.649" ry="197.454" transform="matrix(0.994499 -0.106175 0.822675 0.569089 178.824 -11.5101)" fill="#4A46FF"/>
</g>
</g>
</g>
<g opacity="0.4">
<mask id="mask4_2223_890" style="mask-type:alpha" maskUnits="userSpaceOnUse" x="471" y="-164" width="1455" height="1593">
<rect x="1925.02" y="1023.34" width="1027.05" height="1291.36" transform="rotate(156.745 1925.02 1023.34)" fill="url(#paint4_linear_2223_890)"/>
</mask>
<g mask="url(#mask4_2223_890)">
<path d="M781.138 612.124C698.528 419.89 787.396 197.086 979.63 114.476C1171.86 31.866 1394.67 120.734 1477.28 312.968C1559.89 505.202 1359.71 468.977 1167.47 551.587C975.238 634.197 863.748 804.358 781.138 612.124Z" fill="#2C67FF"/>
<g filter="url(#filter20_f_2223_890)">
<path d="M778.152 605.19C714.204 456.385 818.201 268.785 1010.44 186.175C1202.67 103.566 1410.34 157.228 1474.29 306.034C1538.24 454.839 1434.24 642.439 1242.01 725.048C1049.77 807.658 842.099 753.996 778.152 605.19Z" fill="#2C67FF"/>
</g>
<g filter="url(#filter21_f_2223_890)">
<ellipse cx="1132.19" cy="469.486" rx="378.849" ry="293.262" transform="rotate(156.745 1132.19 469.486)" fill="#2C67FF"/>
</g>
<g filter="url(#filter22_f_2223_890)">
<ellipse cx="1148.58" cy="507.644" rx="378.849" ry="294.52" transform="rotate(156.745 1148.58 507.644)" fill="#2C67FF"/>
</g>
<g filter="url(#filter23_f_2223_890)">
<ellipse cx="1197.78" cy="622.129" rx="378.849" ry="293.262" transform="rotate(156.745 1197.78 622.129)" fill="#2C67FF"/>
</g>
<g filter="url(#filter24_f_2223_890)">
<ellipse cx="1264.37" cy="777.083" rx="318.435" ry="293.262" transform="rotate(156.745 1264.37 777.083)" fill="#2C67FF"/>
</g>
</g>
<mask id="mask5_2223_890" style="mask-type:alpha" maskUnits="userSpaceOnUse" x="945" y="43" width="880" height="741">
<rect x="1824.17" y="152.845" width="636.095" height="799.796" transform="rotate(97.8336 1824.17 152.845)" fill="url(#paint5_linear_2223_890)"/>
</mask>
<g mask="url(#mask5_2223_890)">
<path d="M1240.24 628.038C1111.87 610.375 1022.11 491.987 1039.78 363.609C1057.44 235.231 1175.83 145.479 1304.2 163.141C1432.58 180.803 1349.35 275.393 1331.69 403.77C1314.02 532.148 1368.62 645.7 1240.24 628.038Z" fill="#094EFF"/>
<g filter="url(#filter25_f_2223_890)">
<path d="M1235.61 627.399C1136.23 613.727 1069.99 498.573 1087.65 370.195C1105.32 241.818 1200.19 148.831 1299.57 162.503C1398.94 176.175 1465.19 291.329 1447.52 419.706C1429.86 548.084 1334.98 641.071 1235.61 627.399Z" fill="#094EFF"/>
</g>
<g filter="url(#filter26_f_2223_890)">
<ellipse cx="1276.85" cy="396.227" rx="234.638" ry="181.63" transform="rotate(97.8336 1276.85 396.227)" fill="#094EFF"/>
</g>
<g filter="url(#filter27_f_2223_890)">
<ellipse cx="1302.34" cy="399.732" rx="234.638" ry="182.409" transform="rotate(97.8336 1302.34 399.732)" fill="#094EFF"/>
</g>
<g filter="url(#filter28_f_2223_890)">
<ellipse cx="1378.79" cy="410.251" rx="234.638" ry="181.63" transform="rotate(97.8336 1378.79 410.251)" fill="#094EFF"/>
</g>
<g filter="url(#filter29_f_2223_890)">
<ellipse cx="1482.27" cy="424.488" rx="197.221" ry="181.63" transform="rotate(97.8336 1482.27 424.488)" fill="#094EFF"/>
</g>
</g>
</g>
<g opacity="0.4">
<mask id="mask6_2223_890" style="mask-type:alpha" maskUnits="userSpaceOnUse" x="417" y="-250" width="1165" height="1158">
<rect x="1079.88" y="-249.325" width="726.957" height="914.042" transform="rotate(46.4002 1079.88 -249.325)" fill="url(#paint6_linear_2223_890)"/>
</mask>
<g mask="url(#mask6_2223_890)">
<path d="M1088.47 611.02C981.218 713.151 811.483 709.002 709.352 601.753C607.221 494.505 611.37 324.769 718.619 222.639C825.867 120.508 851.089 262.275 953.219 369.523C1055.35 476.772 1195.72 508.889 1088.47 611.02Z" fill="#0066FF"/>
<g filter="url(#filter30_f_2223_890)">
<path d="M1084.6 614.709C1001.58 693.767 851.486 670.914 749.355 563.665C647.225 456.417 631.732 305.385 714.752 226.327C797.771 147.269 947.865 170.122 1050 277.371C1152.13 384.619 1167.62 535.651 1084.6 614.709Z" fill="#0066FF"/>
</g>
<g filter="url(#filter31_f_2223_890)">
<ellipse cx="907.415" cy="413.145" rx="268.154" ry="207.575" transform="rotate(46.4002 907.415 413.145)" fill="#0066FF"/>
</g>
<g filter="url(#filter32_f_2223_890)">
<ellipse cx="928.704" cy="392.873" rx="268.154" ry="208.466" transform="rotate(46.4002 928.704 392.873)" fill="#0066FF"/>
</g>
<g filter="url(#filter33_f_2223_890)">
<ellipse cx="992.576" cy="332.049" rx="268.154" ry="207.575" transform="rotate(46.4002 992.576 332.049)" fill="#0066FF"/>
</g>
<g filter="url(#filter34_f_2223_890)">
<ellipse cx="1079.03" cy="249.723" rx="225.392" ry="207.575" transform="rotate(46.4002 1079.03 249.723)" fill="#0066FF"/>
</g>
</g>
<mask id="mask7_2223_890" style="mask-type:alpha" maskUnits="userSpaceOnUse" x="526" y="-66" width="564" height="651">
<rect x="526.987" y="31.8256" width="450.236" height="566.106" transform="rotate(-12.5113 526.987 31.8256)" fill="url(#paint7_linear_2223_890)"/>
</mask>
<g mask="url(#mask7_2223_890)">
<path d="M986.048 302.413C1005.92 391.959 949.435 480.657 859.89 500.528C770.345 520.398 681.646 463.915 661.776 374.37C641.905 284.824 725.163 316.785 814.708 296.915C904.253 277.045 966.178 212.868 986.048 302.413Z" fill="#096BFF"/>
<g filter="url(#filter35_f_2223_890)">
<path d="M986.764 305.646C1002.15 374.962 942.024 447.261 852.478 467.131C762.933 487.002 677.874 446.918 662.492 377.602C647.111 308.287 707.233 235.987 796.778 216.117C886.323 196.247 971.383 236.33 986.764 305.646Z" fill="#096BFF"/>
</g>
<g filter="url(#filter36_f_2223_890)">
<ellipse cx="823.195" cy="335.161" rx="166.08" ry="128.56" transform="rotate(-12.5113 823.195 335.161)" fill="#096BFF"/>
</g>
<g filter="url(#filter37_f_2223_890)">
<ellipse cx="819.249" cy="317.383" rx="166.08" ry="129.112" transform="rotate(-12.5113 819.249 317.383)" fill="#096BFF"/>
</g>
<g filter="url(#filter38_f_2223_890)">
<ellipse cx="807.417" cy="264.057" rx="166.08" ry="128.56" transform="rotate(-12.5113 807.417 264.057)" fill="#096BFF"/>
</g>
<g filter="url(#filter39_f_2223_890)">
<ellipse cx="791.4" cy="191.878" rx="139.595" ry="128.56" transform="rotate(-12.5113 791.4 191.878)" fill="#096BFF"/>
</g>
</g>
</g>
</g>
<mask id="mask8_2223_890" style="mask-type:alpha" maskUnits="userSpaceOnUse" x="0" y="0" width="1920" height="834">
<rect width="1920" height="834" fill="#D9D9D9"/>
</mask>
<g mask="url(#mask8_2223_890)">
<g filter="url(#filter40_d_2223_890)">
<ellipse cx="953.5" cy="-126" rx="1012.5" ry="960" fill="url(#paint8_linear_2223_890)" shape-rendering="crispEdges"/>
</g>
</g>
<defs>
<filter id="filter0_f_2223_890" x="523.96" y="190.609" width="723.011" height="564.98" filterUnits="userSpaceOnUse" color-interpolation-filters="sRGB">
<feFlood flood-opacity="0" result="BackgroundImageFix"/>
<feBlend mode="normal" in="SourceGraphic" in2="BackgroundImageFix" result="shape"/>
<feGaussianBlur stdDeviation="3.0545" result="effect1_foregroundBlur_2223_890"/>
</filter>
<filter id="filter1_f_2223_890" x="507.377" y="189.466" width="753.556" height="595.525" filterUnits="userSpaceOnUse" color-interpolation-filters="sRGB">
<feFlood flood-opacity="0" result="BackgroundImageFix"/>
<feBlend mode="normal" in="SourceGraphic" in2="BackgroundImageFix" result="shape"/>
<feGaussianBlur stdDeviation="10.6908" result="effect1_foregroundBlur_2223_890"/>
</filter>
<filter id="filter2_f_2223_890" x="473.215" y="196.619" width="814.663" height="658.953" filterUnits="userSpaceOnUse" color-interpolation-filters="sRGB">
<feFlood flood-opacity="0" result="BackgroundImageFix"/>
<feBlend mode="normal" in="SourceGraphic" in2="BackgroundImageFix" result="shape"/>
<feGaussianBlur stdDeviation="25.9633" result="effect1_foregroundBlur_2223_890"/>
</filter>
<filter id="filter3_f_2223_890" x="401.314" y="253.281" width="936.827" height="778.795" filterUnits="userSpaceOnUse" color-interpolation-filters="sRGB">
<feFlood flood-opacity="0" result="BackgroundImageFix"/>
<feBlend mode="normal" in="SourceGraphic" in2="BackgroundImageFix" result="shape"/>
<feGaussianBlur stdDeviation="56.5083" result="effect1_foregroundBlur_2223_890"/>
</filter>
<filter id="filter4_f_2223_890" x="357.495" y="326.139" width="995.175" height="948.684" filterUnits="userSpaceOnUse" color-interpolation-filters="sRGB">
<feFlood flood-opacity="0" result="BackgroundImageFix"/>
<feBlend mode="normal" in="SourceGraphic" in2="BackgroundImageFix" result="shape"/>
<feGaussianBlur stdDeviation="99.2713" result="effect1_foregroundBlur_2223_890"/>
</filter>
<filter id="filter5_f_2223_890" x="411.436" y="78.4496" width="597.274" height="696.853" filterUnits="userSpaceOnUse" color-interpolation-filters="sRGB">
<feFlood flood-opacity="0" result="BackgroundImageFix"/>
<feBlend mode="normal" in="SourceGraphic" in2="BackgroundImageFix" result="shape"/>
<feGaussianBlur stdDeviation="3.0545" result="effect1_foregroundBlur_2223_890"/>
</filter>
<filter id="filter6_f_2223_890" x="383.384" y="69.3536" width="627.818" height="727.398" filterUnits="userSpaceOnUse" color-interpolation-filters="sRGB">
<feFlood flood-opacity="0" result="BackgroundImageFix"/>
<feBlend mode="normal" in="SourceGraphic" in2="BackgroundImageFix" result="shape"/>
<feGaussianBlur stdDeviation="10.6908" result="effect1_foregroundBlur_2223_890"/>
</filter>
<filter id="filter7_f_2223_890" x="316.793" y="55.6033" width="690.718" height="788.849" filterUnits="userSpaceOnUse" color-interpolation-filters="sRGB">
<feFlood flood-opacity="0" result="BackgroundImageFix"/>
<feBlend mode="normal" in="SourceGraphic" in2="BackgroundImageFix" result="shape"/>
<feGaussianBlur stdDeviation="25.9633" result="effect1_foregroundBlur_2223_890"/>
</filter>
<filter id="filter8_f_2223_890" x="151.179" y="45.6293" width="811.089" height="910.668" filterUnits="userSpaceOnUse" color-interpolation-filters="sRGB">
<feFlood flood-opacity="0" result="BackgroundImageFix"/>
<feBlend mode="normal" in="SourceGraphic" in2="BackgroundImageFix" result="shape"/>
<feGaussianBlur stdDeviation="56.5083" result="effect1_foregroundBlur_2223_890"/>
</filter>
<filter id="filter9_f_2223_890" x="-64.774" y="76.3988" width="957.594" height="987.014" filterUnits="userSpaceOnUse" color-interpolation-filters="sRGB">
<feFlood flood-opacity="0" result="BackgroundImageFix"/>
<feBlend mode="normal" in="SourceGraphic" in2="BackgroundImageFix" result="shape"/>
<feGaussianBlur stdDeviation="99.2713" result="effect1_foregroundBlur_2223_890"/>
</filter>
<filter id="filter10_f_2223_890" x="470.324" y="118.097" width="673.609" height="305.322" filterUnits="userSpaceOnUse" color-interpolation-filters="sRGB">
<feFlood flood-opacity="0" result="BackgroundImageFix"/>
<feBlend mode="normal" in="SourceGraphic" in2="BackgroundImageFix" result="shape"/>
<feGaussianBlur stdDeviation="2.13896" result="effect1_foregroundBlur_2223_890"/>
</filter>
<filter id="filter11_f_2223_890" x="442.52" y="105.78" width="694.998" height="326.712" filterUnits="userSpaceOnUse" color-interpolation-filters="sRGB">
<feFlood flood-opacity="0" result="BackgroundImageFix"/>
<feBlend mode="normal" in="SourceGraphic" in2="BackgroundImageFix" result="shape"/>
<feGaussianBlur stdDeviation="7.48635" result="effect1_foregroundBlur_2223_890"/>
</filter>
<filter id="filter12_f_2223_890" x="372.644" y="79.8977" width="740.627" height="369.549" filterUnits="userSpaceOnUse" color-interpolation-filters="sRGB">
<feFlood flood-opacity="0" result="BackgroundImageFix"/>
<feBlend mode="normal" in="SourceGraphic" in2="BackgroundImageFix" result="shape"/>
<feGaussianBlur stdDeviation="18.1811" result="effect1_foregroundBlur_2223_890"/>
</filter>
<filter id="filter13_f_2223_890" x="190.129" y="23.7613" width="823.336" height="455.049" filterUnits="userSpaceOnUse" color-interpolation-filters="sRGB">
<feFlood flood-opacity="0" result="BackgroundImageFix"/>
<feBlend mode="normal" in="SourceGraphic" in2="BackgroundImageFix" result="shape"/>
<feGaussianBlur stdDeviation="39.5707" result="effect1_foregroundBlur_2223_890"/>
</filter>
<filter id="filter14_f_2223_890" x="-60.748" y="-31.7545" width="942.947" height="529.84" filterUnits="userSpaceOnUse" color-interpolation-filters="sRGB">
<feFlood flood-opacity="0" result="BackgroundImageFix"/>
<feBlend mode="normal" in="SourceGraphic" in2="BackgroundImageFix" result="shape"/>
<feGaussianBlur stdDeviation="69.5161" result="effect1_foregroundBlur_2223_890"/>
</filter>
<filter id="filter15_f_2223_890" x="437.253" y="77.7242" width="825.467" height="247.173" filterUnits="userSpaceOnUse" color-interpolation-filters="sRGB">
<feFlood flood-opacity="0" result="BackgroundImageFix"/>
<feBlend mode="normal" in="SourceGraphic" in2="BackgroundImageFix" result="shape"/>
<feGaussianBlur stdDeviation="2.13896" result="effect1_foregroundBlur_2223_890"/>
</filter>
<filter id="filter16_f_2223_890" x="418.189" y="61.2418" width="846.857" height="268.562" filterUnits="userSpaceOnUse" color-interpolation-filters="sRGB">
<feFlood flood-opacity="0" result="BackgroundImageFix"/>
<feBlend mode="normal" in="SourceGraphic" in2="BackgroundImageFix" result="shape"/>
<feGaussianBlur stdDeviation="7.48635" result="effect1_foregroundBlur_2223_890"/>
</filter>
<filter id="filter17_f_2223_890" x="373.518" y="23.4832" width="890.191" height="312.25" filterUnits="userSpaceOnUse" color-interpolation-filters="sRGB">
<feFlood flood-opacity="0" result="BackgroundImageFix"/>
<feBlend mode="normal" in="SourceGraphic" in2="BackgroundImageFix" result="shape"/>
<feGaussianBlur stdDeviation="18.1811" result="effect1_foregroundBlur_2223_890"/>
</filter>
<filter id="filter18_f_2223_890" x="261.995" y="-66.5865" width="975.194" height="396.899" filterUnits="userSpaceOnUse" color-interpolation-filters="sRGB">
<feFlood flood-opacity="0" result="BackgroundImageFix"/>
<feBlend mode="normal" in="SourceGraphic" in2="BackgroundImageFix" result="shape"/>
<feGaussianBlur stdDeviation="39.5707" result="effect1_foregroundBlur_2223_890"/>
</filter>
<filter id="filter19_f_2223_890" x="162.73" y="-189.115" width="986.883" height="512.708" filterUnits="userSpaceOnUse" color-interpolation-filters="sRGB">
<feFlood flood-opacity="0" result="BackgroundImageFix"/>
<feBlend mode="normal" in="SourceGraphic" in2="BackgroundImageFix" result="shape"/>
<feGaussianBlur stdDeviation="69.5161" result="effect1_foregroundBlur_2223_890"/>
</filter>
<filter id="filter20_f_2223_890" x="752.222" y="140.307" width="748" height="630.609" filterUnits="userSpaceOnUse" color-interpolation-filters="sRGB">
<feFlood flood-opacity="0" result="BackgroundImageFix"/>
<feBlend mode="normal" in="SourceGraphic" in2="BackgroundImageFix" result="shape"/>
<feGaussianBlur stdDeviation="3.53844" result="effect1_foregroundBlur_2223_890"/>
</filter>
<filter id="filter21_f_2223_890" x="740.495" y="136.489" width="783.384" height="665.994" filterUnits="userSpaceOnUse" color-interpolation-filters="sRGB">
<feFlood flood-opacity="0" result="BackgroundImageFix"/>
<feBlend mode="normal" in="SourceGraphic" in2="BackgroundImageFix" result="shape"/>
<feGaussianBlur stdDeviation="12.3845" result="effect1_foregroundBlur_2223_890"/>
</filter>
<filter id="filter22_f_2223_890" x="721.35" y="138.251" width="854.467" height="738.787" filterUnits="userSpaceOnUse" color-interpolation-filters="sRGB">
<feFlood flood-opacity="0" result="BackgroundImageFix"/>
<feBlend mode="normal" in="SourceGraphic" in2="BackgroundImageFix" result="shape"/>
<feGaussianBlur stdDeviation="30.0767" result="effect1_foregroundBlur_2223_890"/>
</filter>
<filter id="filter23_f_2223_890" x="699.936" y="182.978" width="995.691" height="878.3" filterUnits="userSpaceOnUse" color-interpolation-filters="sRGB">
<feFlood flood-opacity="0" result="BackgroundImageFix"/>
<feBlend mode="normal" in="SourceGraphic" in2="BackgroundImageFix" result="shape"/>
<feGaussianBlur stdDeviation="65.4612" result="effect1_foregroundBlur_2223_890"/>
</filter>
<filter id="filter24_f_2223_890" x="719.647" y="249.688" width="1089.45" height="1054.79" filterUnits="userSpaceOnUse" color-interpolation-filters="sRGB">
<feFlood flood-opacity="0" result="BackgroundImageFix"/>
<feBlend mode="normal" in="SourceGraphic" in2="BackgroundImageFix" result="shape"/>
<feGaussianBlur stdDeviation="114.999" result="effect1_foregroundBlur_2223_890"/>
</filter>
<filter id="filter25_f_2223_890" x="1077.73" y="154.092" width="379.725" height="481.718" filterUnits="userSpaceOnUse" color-interpolation-filters="sRGB">
<feFlood flood-opacity="0" result="BackgroundImageFix"/>
<feBlend mode="normal" in="SourceGraphic" in2="BackgroundImageFix" result="shape"/>
<feGaussianBlur stdDeviation="3.53844" result="effect1_foregroundBlur_2223_890"/>
</filter>
<filter id="filter26_f_2223_890" x="1069.3" y="137.676" width="415.109" height="517.102" filterUnits="userSpaceOnUse" color-interpolation-filters="sRGB">
<feFlood flood-opacity="0" result="BackgroundImageFix"/>
<feBlend mode="normal" in="SourceGraphic" in2="BackgroundImageFix" result="shape"/>
<feGaussianBlur stdDeviation="12.3845" result="effect1_foregroundBlur_2223_890"/>
</filter>
<filter id="filter27_f_2223_890" x="1058.64" y="105.785" width="487.399" height="587.894" filterUnits="userSpaceOnUse" color-interpolation-filters="sRGB">
<feFlood flood-opacity="0" result="BackgroundImageFix"/>
<feBlend mode="normal" in="SourceGraphic" in2="BackgroundImageFix" result="shape"/>
<feGaussianBlur stdDeviation="30.0767" result="effect1_foregroundBlur_2223_890"/>
</filter>
<filter id="filter28_f_2223_890" x="1065.09" y="45.5471" width="627.416" height="729.409" filterUnits="userSpaceOnUse" color-interpolation-filters="sRGB">
<feFlood flood-opacity="0" result="BackgroundImageFix"/>
<feBlend mode="normal" in="SourceGraphic" in2="BackgroundImageFix" result="shape"/>
<feGaussianBlur stdDeviation="65.4612" result="effect1_foregroundBlur_2223_890"/>
</filter>
<filter id="filter29_f_2223_890" x="1070.32" y="-2.47385" width="823.91" height="853.924" filterUnits="userSpaceOnUse" color-interpolation-filters="sRGB">
<feFlood flood-opacity="0" result="BackgroundImageFix"/>
<feBlend mode="normal" in="SourceGraphic" in2="BackgroundImageFix" result="shape"/>
<feGaussianBlur stdDeviation="114.999" result="effect1_foregroundBlur_2223_890"/>
</filter>
<filter id="filter30_f_2223_890" x="654.278" y="172.176" width="490.795" height="496.683" filterUnits="userSpaceOnUse" color-interpolation-filters="sRGB">
<feFlood flood-opacity="0" result="BackgroundImageFix"/>
<feBlend mode="normal" in="SourceGraphic" in2="BackgroundImageFix" result="shape"/>
<feGaussianBlur stdDeviation="3.53844" result="effect1_foregroundBlur_2223_890"/>
</filter>
<filter id="filter31_f_2223_890" x="644.325" y="147.111" width="526.179" height="532.068" filterUnits="userSpaceOnUse" color-interpolation-filters="sRGB">
<feFlood flood-opacity="0" result="BackgroundImageFix"/>
<feBlend mode="normal" in="SourceGraphic" in2="BackgroundImageFix" result="shape"/>
<feGaussianBlur stdDeviation="12.3845" result="effect1_foregroundBlur_2223_890"/>
</filter>
<filter id="filter32_f_2223_890" x="629.823" y="91.0898" width="597.762" height="603.566" filterUnits="userSpaceOnUse" color-interpolation-filters="sRGB">
<feFlood flood-opacity="0" result="BackgroundImageFix"/>
<feBlend mode="normal" in="SourceGraphic" in2="BackgroundImageFix" result="shape"/>
<feGaussianBlur stdDeviation="30.0767" result="effect1_foregroundBlur_2223_890"/>
</filter>
<filter id="filter33_f_2223_890" x="623.333" y="-40.1378" width="738.486" height="744.374" filterUnits="userSpaceOnUse" color-interpolation-filters="sRGB">
<feFlood flood-opacity="0" result="BackgroundImageFix"/>
<feBlend mode="normal" in="SourceGraphic" in2="BackgroundImageFix" result="shape"/>
<feGaussianBlur stdDeviation="65.4612" result="effect1_foregroundBlur_2223_890"/>
</filter>
<filter id="filter34_f_2223_890" x="632.795" y="-197.379" width="892.461" height="894.205" filterUnits="userSpaceOnUse" color-interpolation-filters="sRGB">
<feFlood flood-opacity="0" result="BackgroundImageFix"/>
<feBlend mode="normal" in="SourceGraphic" in2="BackgroundImageFix" result="shape"/>
<feGaussianBlur stdDeviation="114.999" result="effect1_foregroundBlur_2223_890"/>
</filter>
<filter id="filter35_f_2223_890" x="653.014" y="203.951" width="343.228" height="275.346" filterUnits="userSpaceOnUse" color-interpolation-filters="sRGB">
<feFlood flood-opacity="0" result="BackgroundImageFix"/>
<feBlend mode="normal" in="SourceGraphic" in2="BackgroundImageFix" result="shape"/>
<feGaussianBlur stdDeviation="3.53844" result="effect1_foregroundBlur_2223_890"/>
</filter>
<filter id="filter36_f_2223_890" x="633.889" y="179.796" width="378.613" height="310.73" filterUnits="userSpaceOnUse" color-interpolation-filters="sRGB">
<feFlood flood-opacity="0" result="BackgroundImageFix"/>
<feBlend mode="normal" in="SourceGraphic" in2="BackgroundImageFix" result="shape"/>
<feGaussianBlur stdDeviation="12.3845" result="effect1_foregroundBlur_2223_890"/>
</filter>
<filter id="filter37_f_2223_890" x="594.537" y="126.116" width="449.422" height="382.535" filterUnits="userSpaceOnUse" color-interpolation-filters="sRGB">
<feFlood flood-opacity="0" result="BackgroundImageFix"/>
<feBlend mode="normal" in="SourceGraphic" in2="BackgroundImageFix" result="shape"/>
<feGaussianBlur stdDeviation="30.0767" result="effect1_foregroundBlur_2223_890"/>
</filter>
<filter id="filter38_f_2223_890" x="511.957" y="2.53888" width="590.919" height="523.036" filterUnits="userSpaceOnUse" color-interpolation-filters="sRGB">
<feFlood flood-opacity="0" result="BackgroundImageFix"/>
<feBlend mode="normal" in="SourceGraphic" in2="BackgroundImageFix" result="shape"/>
<feGaussianBlur stdDeviation="65.4612" result="effect1_foregroundBlur_2223_890"/>
</filter>
<filter id="filter39_f_2223_890" x="422.277" y="-167.249" width="738.246" height="718.255" filterUnits="userSpaceOnUse" color-interpolation-filters="sRGB">
<feFlood flood-opacity="0" result="BackgroundImageFix"/>
<feBlend mode="normal" in="SourceGraphic" in2="BackgroundImageFix" result="shape"/>
<feGaussianBlur stdDeviation="114.999" result="effect1_foregroundBlur_2223_890"/>
</filter>
<filter id="filter40_d_2223_890" x="-109" y="-1131" width="2125" height="2020" filterUnits="userSpaceOnUse" color-interpolation-filters="sRGB">
<feFlood flood-opacity="0" result="BackgroundImageFix"/>
<feColorMatrix in="SourceAlpha" type="matrix" values="0 0 0 0 0 0 0 0 0 0 0 0 0 0 0 0 0 0 127 0" result="hardAlpha"/>
<feOffset dy="5"/>
<feGaussianBlur stdDeviation="25"/>
<feComposite in2="hardAlpha" operator="out"/>
<feColorMatrix type="matrix" values="0 0 0 0 0.807843 0 0 0 0 0.180392 0 0 0 0 0.317647 0 0 0 0.04 0"/>
<feBlend mode="normal" in2="BackgroundImageFix" result="effect1_dropShadow_2223_890"/>
<feBlend mode="normal" in="SourceGraphic" in2="effect1_dropShadow_2223_890" result="shape"/>
</filter>
<linearGradient id="paint0_linear_2223_890" x1="1998.16" y1="2266.76" x2="1998.16" y2="1300.49" gradientUnits="userSpaceOnUse">
<stop stop-color="white"/>
<stop offset="1" stop-color="white" stop-opacity="0"/>
</linearGradient>
<linearGradient id="paint1_linear_2223_890" x1="918.7" y1="2166.57" x2="918.7" y2="1200.31" gradientUnits="userSpaceOnUse">
<stop stop-color="white"/>
<stop offset="1" stop-color="white" stop-opacity="0"/>
</linearGradient>
<linearGradient id="paint2_linear_2223_890" x1="130.178" y1="1546.08" x2="130.178" y2="375.887" gradientUnits="userSpaceOnUse">
<stop stop-color="white"/>
<stop offset="1" stop-color="white" stop-opacity="0"/>
</linearGradient>
<linearGradient id="paint3_linear_2223_890" x1="749.694" y1="692.361" x2="749.694" y2="5.38646e-06" gradientUnits="userSpaceOnUse">
<stop stop-color="white"/>
<stop offset="1" stop-color="white" stop-opacity="0"/>
</linearGradient>
<linearGradient id="paint4_linear_2223_890" x1="2678.95" y1="2051.65" x2="2678.95" y2="1023.34" gradientUnits="userSpaceOnUse">
<stop stop-color="white"/>
<stop offset="1" stop-color="white" stop-opacity="0"/>
</linearGradient>
<linearGradient id="paint5_linear_2223_890" x1="2291.11" y1="789.719" x2="2291.11" y2="152.845" gradientUnits="userSpaceOnUse">
<stop stop-color="white"/>
<stop offset="1" stop-color="white" stop-opacity="0"/>
</linearGradient>
<linearGradient id="paint6_linear_2223_890" x1="1613.52" y1="478.523" x2="1613.52" y2="-249.325" gradientUnits="userSpaceOnUse">
<stop stop-color="white"/>
<stop offset="1" stop-color="white" stop-opacity="0"/>
</linearGradient>
<linearGradient id="paint7_linear_2223_890" x1="857.492" y1="482.614" x2="857.492" y2="31.8256" gradientUnits="userSpaceOnUse">
<stop stop-color="white"/>
<stop offset="1" stop-color="white" stop-opacity="0"/>
</linearGradient>
<linearGradient id="paint8_linear_2223_890" x1="953.5" y1="348" x2="953.5" y2="964" gradientUnits="userSpaceOnUse">
<stop stop-color="white"/>
<stop offset="1" stop-color="#F6F4F3" stop-opacity="0.2"/>
</linearGradient>
<clipPath id="clip0_2223_890">
<rect width="1920" height="1172" fill="white" transform="translate(1920 1172) rotate(-180)"/>
</clipPath>
</defs>
</svg>
