<svg width="1920" height="724" viewBox="0 0 1920 724" fill="none" xmlns="http://www.w3.org/2000/svg">
<g clip-path="url(#clip0_2545_3958)">
<g opacity="0.4">
<mask id="mask0_2545_3958" style="mask-type:alpha" maskUnits="userSpaceOnUse" x="518" y="-129" width="1074" height="1298">
<rect x="630.273" y="-128.494" width="965.079" height="1213.44" transform="rotate(5.30217 630.273 -128.494)" fill="url(#paint0_linear_2545_3958)"/>
</mask>
<g mask="url(#mask0_2545_3958)">
<path d="M1389.66 724.729C1371.49 920.496 1198.06 1064.47 1002.3 1046.3C806.529 1028.13 662.557 854.703 680.725 658.936C698.893 463.168 847.841 582.986 1043.61 601.154C1239.38 619.323 1407.83 528.961 1389.66 724.729Z" fill="#579AFF"/>
<g filter="url(#filter0_f_2545_3958)">
<path d="M1389 731.797C1374.94 883.337 1204.84 991.457 1009.07 973.289C813.303 955.121 666.003 817.544 680.067 666.004C694.131 514.463 864.232 406.343 1060 424.512C1255.77 442.68 1403.07 580.256 1389 731.797Z" fill="#579AFF"/>
</g>
<g filter="url(#filter1_f_2545_3958)">
<ellipse cx="1035.84" cy="684.772" rx="355.991" ry="275.568" transform="rotate(5.30217 1035.84 684.772)" fill="#579AFF"/>
</g>
<g filter="url(#filter2_f_2545_3958)">
<ellipse cx="1039.45" cy="645.904" rx="355.991" ry="276.751" transform="rotate(5.30217 1039.45 645.904)" fill="#579AFF"/>
</g>
<g filter="url(#filter3_f_2545_3958)">
<ellipse cx="1050.27" cy="529.321" rx="355.991" ry="275.568" transform="rotate(5.30217 1050.27 529.321)" fill="#579AFF"/>
</g>
<g filter="url(#filter4_f_2545_3958)">
<ellipse cx="1064.92" cy="371.519" rx="299.222" ry="275.568" transform="rotate(5.30217 1064.92 371.519)" fill="#579AFF"/>
</g>
</g>
<mask id="mask1_2545_3958" style="mask-type:alpha" maskUnits="userSpaceOnUse" x="617" y="-29" width="1513" height="1398">
<rect x="1709.73" y="-28.312" width="965.079" height="1213.44" transform="rotate(64.2136 1709.73 -28.312)" fill="url(#paint1_linear_2545_3958)"/>
</mask>
<g mask="url(#mask1_2545_3958)">
<path d="M1371.18 1062.58C1194.15 1148.11 981.303 1073.93 895.775 896.898C810.247 719.868 884.424 507.022 1061.45 421.494C1238.49 335.966 1212.79 525.39 1298.32 702.42C1383.84 879.451 1548.21 977.051 1371.18 1062.58Z" fill="#FF4D4F"/>
<g filter="url(#filter5_f_2545_3958)">
<path d="M1364.79 1065.67C1227.75 1131.87 1047.33 1042.03 961.8 865C876.272 687.97 918.028 490.787 1055.07 424.581C1192.1 358.375 1372.53 448.217 1458.05 625.247C1543.58 802.278 1501.83 999.46 1364.79 1065.67Z" fill="#FF4D4F"/>
</g>
<g filter="url(#filter6_f_2545_3958)">
<ellipse cx="1222.71" cy="738.947" rx="355.991" ry="275.568" transform="rotate(64.2136 1222.71 738.947)" fill="#FF4D4F"/>
</g>
<g filter="url(#filter7_f_2545_3958)">
<ellipse cx="1257.85" cy="721.972" rx="355.991" ry="276.75" transform="rotate(64.2136 1257.85 721.972)" fill="#FF4D4F"/>
</g>
<g filter="url(#filter8_f_2545_3958)">
<ellipse cx="1363.28" cy="671.036" rx="355.991" ry="275.568" transform="rotate(64.2136 1363.28 671.036)" fill="#FF4D4F"/>
</g>
<g filter="url(#filter9_f_2545_3958)">
<ellipse cx="1505.98" cy="602.094" rx="299.222" ry="275.568" transform="rotate(64.2136 1505.98 602.094)" fill="#FF4D4F"/>
</g>
</g>
</g>
<g opacity="0.4">
<mask id="mask2_2545_3958" style="mask-type:alpha" maskUnits="userSpaceOnUse" x="579" y="657" width="1501" height="533">
<rect x="2079.61" y="796.112" width="394.765" height="1469.55" transform="rotate(95.4175 2079.61 796.112)" fill="url(#paint2_linear_2545_3958)"/>
</mask>
<g mask="url(#mask2_2545_3958)">
<path d="M1107.68 1047.02C870.644 1024.54 684.641 941.414 692.233 861.351C699.826 781.287 898.14 734.607 1135.18 757.087C1372.22 779.566 1238.82 832.403 1231.23 912.467C1223.63 992.53 1344.72 1069.5 1107.68 1047.02Z" fill="#57AEFF"/>
<path d="M1099.12 1046.21C915.635 1028.81 773.043 949.797 780.635 869.733C788.228 789.67 943.131 738.872 1126.62 756.274C1310.11 773.675 1452.7 852.686 1445.11 932.749C1437.52 1012.81 1282.61 1063.61 1099.12 1046.21Z" fill="#57AEFF"/>
<ellipse cx="1129.98" cy="902.864" rx="145.618" ry="333.728" transform="rotate(95.4175 1129.98 902.864)" fill="#57AEFF"/>
<g filter="url(#filter12_f_2545_3958)">
<ellipse cx="1177.04" cy="907.328" rx="145.618" ry="335.16" transform="rotate(95.4175 1177.04 907.328)" fill="#57AEFF"/>
</g>
<g filter="url(#filter13_f_2545_3958)">
<ellipse cx="1318.2" cy="920.714" rx="145.618" ry="333.728" transform="rotate(95.4175 1318.2 920.714)" fill="#57AEFF"/>
</g>
<g filter="url(#filter14_f_2545_3958)">
<ellipse cx="1509.27" cy="938.834" rx="122.397" ry="333.728" transform="rotate(95.4175 1509.27 938.834)" fill="#57AEFF"/>
</g>
</g>
</g>
<g opacity="0.4">
<mask id="mask3_2545_3958" style="mask-type:alpha" maskUnits="userSpaceOnUse" x="-6" y="-257" width="1455" height="1593">
<rect x="-5.02393" y="148.658" width="1027.05" height="1291.36" transform="rotate(-23.2549 -5.02393 148.658)" fill="url(#paint3_linear_2545_3958)"/>
</mask>
<g mask="url(#mask3_2545_3958)">
<path d="M1138.86 559.876C1221.47 752.11 1132.6 974.915 940.371 1057.52C748.137 1140.13 525.332 1051.27 442.722 859.032C360.112 666.799 560.294 703.023 752.528 620.413C944.762 537.803 1056.25 367.642 1138.86 559.876Z" fill="#2C67FF"/>
<g filter="url(#filter15_f_2545_3958)">
<path d="M1141.85 566.81C1205.8 715.615 1101.8 903.215 909.565 985.825C717.331 1068.43 509.656 1014.77 445.708 865.966C381.761 717.161 485.758 529.562 677.992 446.952C870.226 364.342 1077.9 418.004 1141.85 566.81Z" fill="#2C67FF"/>
</g>
<g filter="url(#filter16_f_2545_3958)">
<ellipse cx="787.813" cy="702.515" rx="378.849" ry="293.262" transform="rotate(-23.2549 787.813 702.515)" fill="#2C67FF"/>
</g>
<g filter="url(#filter17_f_2545_3958)">
<ellipse cx="771.417" cy="664.356" rx="378.849" ry="294.52" transform="rotate(-23.2549 771.417 664.356)" fill="#2C67FF"/>
</g>
<g filter="url(#filter18_f_2545_3958)">
<ellipse cx="722.219" cy="549.872" rx="378.849" ry="293.262" transform="rotate(-23.2549 722.219 549.872)" fill="#2C67FF"/>
</g>
<g filter="url(#filter19_f_2545_3958)">
<ellipse cx="655.627" cy="394.917" rx="318.435" ry="293.262" transform="rotate(-23.2549 655.627 394.917)" fill="#2C67FF"/>
</g>
</g>
<mask id="mask4_2545_3958" style="mask-type:alpha" maskUnits="userSpaceOnUse" x="95" y="388" width="880" height="741">
<rect x="95.832" y="1019.16" width="636.095" height="799.795" transform="rotate(-82.1664 95.832 1019.16)" fill="url(#paint4_linear_2545_3958)"/>
</mask>
<g mask="url(#mask4_2545_3958)">
<path d="M679.756 543.962C808.134 561.625 897.887 680.013 880.224 808.391C862.562 936.769 744.173 1026.52 615.796 1008.86C487.418 991.197 570.65 896.607 588.313 768.23C605.975 639.852 551.379 526.3 679.756 543.962Z" fill="#094EFF"/>
<g filter="url(#filter20_f_2545_3958)">
<path d="M684.391 544.601C783.766 558.273 850.008 673.427 832.346 801.805C814.683 930.182 719.806 1023.17 620.43 1009.5C521.055 995.825 454.813 880.671 472.476 752.294C490.138 623.916 585.016 530.929 684.391 544.601Z" fill="#094EFF"/>
</g>
<g filter="url(#filter21_f_2545_3958)">
<ellipse cx="643.145" cy="775.772" rx="234.638" ry="181.63" transform="rotate(-82.1664 643.145 775.772)" fill="#094EFF"/>
</g>
<g filter="url(#filter22_f_2545_3958)">
<ellipse cx="617.656" cy="772.268" rx="234.638" ry="182.409" transform="rotate(-82.1664 617.656 772.268)" fill="#094EFF"/>
</g>
<g filter="url(#filter23_f_2545_3958)">
<ellipse cx="541.206" cy="761.748" rx="234.638" ry="181.63" transform="rotate(-82.1664 541.206 761.748)" fill="#094EFF"/>
</g>
<g filter="url(#filter24_f_2545_3958)">
<ellipse cx="437.725" cy="747.512" rx="197.22" ry="181.63" transform="rotate(-82.1664 437.725 747.512)" fill="#094EFF"/>
</g>
</g>
</g>
<g opacity="0.4">
<mask id="mask5_2545_3958" style="mask-type:alpha" maskUnits="userSpaceOnUse" x="338" y="264" width="1165" height="1158">
<rect x="840.119" y="1421.32" width="726.957" height="914.042" transform="rotate(-133.6 840.119 1421.32)" fill="url(#paint5_linear_2545_3958)"/>
</mask>
<g mask="url(#mask5_2545_3958)">
<path d="M831.533 560.98C938.782 458.849 1108.52 462.998 1210.65 570.247C1312.78 677.495 1308.63 847.231 1201.38 949.361C1094.13 1051.49 1068.91 909.725 966.781 802.477C864.65 695.228 724.285 663.111 831.533 560.98Z" fill="#0066FF"/>
<g filter="url(#filter25_f_2545_3958)">
<path d="M835.401 557.291C918.42 478.233 1068.51 501.086 1170.64 608.335C1272.78 715.583 1288.27 866.615 1205.25 945.673C1122.23 1024.73 972.135 1001.88 870.004 894.629C767.873 787.38 752.381 636.349 835.401 557.291Z" fill="#0066FF"/>
</g>
<g filter="url(#filter26_f_2545_3958)">
<ellipse cx="1012.59" cy="758.855" rx="268.154" ry="207.575" transform="rotate(-133.6 1012.59 758.855)" fill="#0066FF"/>
</g>
<g filter="url(#filter27_f_2545_3958)">
<ellipse cx="991.296" cy="779.127" rx="268.154" ry="208.466" transform="rotate(-133.6 991.296 779.127)" fill="#0066FF"/>
</g>
<g filter="url(#filter28_f_2545_3958)">
<ellipse cx="927.424" cy="839.951" rx="268.154" ry="207.575" transform="rotate(-133.6 927.424 839.951)" fill="#0066FF"/>
</g>
<g filter="url(#filter29_f_2545_3958)">
<ellipse cx="840.974" cy="922.277" rx="225.392" ry="207.575" transform="rotate(-133.6 840.974 922.277)" fill="#0066FF"/>
</g>
</g>
<mask id="mask6_2545_3958" style="mask-type:alpha" maskUnits="userSpaceOnUse" x="830" y="587" width="564" height="651">
<rect x="1393.01" y="1140.17" width="450.236" height="566.106" transform="rotate(167.489 1393.01 1140.17)" fill="url(#paint6_linear_2545_3958)"/>
</mask>
<g mask="url(#mask6_2545_3958)">
<path d="M933.952 869.586C914.082 780.041 970.565 691.342 1060.11 671.472C1149.66 651.602 1238.35 708.085 1258.22 797.63C1278.09 887.175 1194.84 855.215 1105.29 875.085C1015.75 894.955 953.822 959.132 933.952 869.586Z" fill="#096BFF"/>
<g filter="url(#filter30_f_2545_3958)">
<path d="M933.236 866.354C917.854 797.038 977.976 724.738 1067.52 704.868C1157.07 684.998 1242.13 725.081 1257.51 794.397C1272.89 863.713 1212.77 936.013 1123.22 955.883C1033.68 975.753 948.617 935.669 933.236 866.354Z" fill="#096BFF"/>
</g>
<g filter="url(#filter31_f_2545_3958)">
<ellipse cx="1096.8" cy="836.839" rx="166.08" ry="128.56" transform="rotate(167.489 1096.8 836.839)" fill="#096BFF"/>
</g>
<g filter="url(#filter32_f_2545_3958)">
<ellipse cx="1100.75" cy="854.617" rx="166.08" ry="129.112" transform="rotate(167.489 1100.75 854.617)" fill="#096BFF"/>
</g>
<g filter="url(#filter33_f_2545_3958)">
<ellipse cx="1112.58" cy="907.943" rx="166.08" ry="128.56" transform="rotate(167.489 1112.58 907.943)" fill="#096BFF"/>
</g>
<g filter="url(#filter34_f_2545_3958)">
<ellipse cx="1128.6" cy="980.121" rx="139.595" ry="128.56" transform="rotate(167.489 1128.6 980.121)" fill="#096BFF"/>
</g>
</g>
</g>
</g>
<mask id="mask7_2545_3958" style="mask-type:alpha" maskUnits="userSpaceOnUse" x="0" y="171" width="1920" height="553">
<rect y="171" width="1920" height="553" fill="#D9D9D9"/>
</mask>
<g mask="url(#mask7_2545_3958)">
<g filter="url(#filter35_d_2545_3958)">
<ellipse cx="956.5" cy="1038" rx="1211.5" ry="865" fill="url(#paint7_linear_2545_3958)" fill-opacity="0.9" shape-rendering="crispEdges"/>
</g>
</g>
<defs>
<filter id="filter0_f_2545_3958" x="673.029" y="416.41" width="723.011" height="564.98" filterUnits="userSpaceOnUse" color-interpolation-filters="sRGB">
<feFlood flood-opacity="0" result="BackgroundImageFix"/>
<feBlend mode="normal" in="SourceGraphic" in2="BackgroundImageFix" result="shape"/>
<feGaussianBlur stdDeviation="3.0545" result="effect1_foregroundBlur_2545_3958"/>
</filter>
<filter id="filter1_f_2545_3958" x="659.066" y="387.009" width="753.556" height="595.525" filterUnits="userSpaceOnUse" color-interpolation-filters="sRGB">
<feFlood flood-opacity="0" result="BackgroundImageFix"/>
<feBlend mode="normal" in="SourceGraphic" in2="BackgroundImageFix" result="shape"/>
<feGaussianBlur stdDeviation="10.6908" result="effect1_foregroundBlur_2545_3958"/>
</filter>
<filter id="filter2_f_2545_3958" x="632.122" y="316.427" width="814.663" height="658.954" filterUnits="userSpaceOnUse" color-interpolation-filters="sRGB">
<feFlood flood-opacity="0" result="BackgroundImageFix"/>
<feBlend mode="normal" in="SourceGraphic" in2="BackgroundImageFix" result="shape"/>
<feGaussianBlur stdDeviation="25.9633" result="effect1_foregroundBlur_2545_3958"/>
</filter>
<filter id="filter3_f_2545_3958" x="581.859" y="139.924" width="936.827" height="778.795" filterUnits="userSpaceOnUse" color-interpolation-filters="sRGB">
<feFlood flood-opacity="0" result="BackgroundImageFix"/>
<feBlend mode="normal" in="SourceGraphic" in2="BackgroundImageFix" result="shape"/>
<feGaussianBlur stdDeviation="56.5083" result="effect1_foregroundBlur_2545_3958"/>
</filter>
<filter id="filter4_f_2545_3958" x="567.33" y="-102.823" width="995.175" height="948.684" filterUnits="userSpaceOnUse" color-interpolation-filters="sRGB">
<feFlood flood-opacity="0" result="BackgroundImageFix"/>
<feBlend mode="normal" in="SourceGraphic" in2="BackgroundImageFix" result="shape"/>
<feGaussianBlur stdDeviation="99.2713" result="effect1_foregroundBlur_2545_3958"/>
</filter>
<filter id="filter5_f_2545_3958" x="911.29" y="396.697" width="597.274" height="696.853" filterUnits="userSpaceOnUse" color-interpolation-filters="sRGB">
<feFlood flood-opacity="0" result="BackgroundImageFix"/>
<feBlend mode="normal" in="SourceGraphic" in2="BackgroundImageFix" result="shape"/>
<feGaussianBlur stdDeviation="3.0545" result="effect1_foregroundBlur_2545_3958"/>
</filter>
<filter id="filter6_f_2545_3958" x="908.797" y="375.248" width="627.819" height="727.398" filterUnits="userSpaceOnUse" color-interpolation-filters="sRGB">
<feFlood flood-opacity="0" result="BackgroundImageFix"/>
<feBlend mode="normal" in="SourceGraphic" in2="BackgroundImageFix" result="shape"/>
<feGaussianBlur stdDeviation="10.6908" result="effect1_foregroundBlur_2545_3958"/>
</filter>
<filter id="filter7_f_2545_3958" x="912.489" y="327.547" width="690.718" height="788.849" filterUnits="userSpaceOnUse" color-interpolation-filters="sRGB">
<feFlood flood-opacity="0" result="BackgroundImageFix"/>
<feBlend mode="normal" in="SourceGraphic" in2="BackgroundImageFix" result="shape"/>
<feGaussianBlur stdDeviation="25.9633" result="effect1_foregroundBlur_2545_3958"/>
</filter>
<filter id="filter8_f_2545_3958" x="957.732" y="215.702" width="811.089" height="910.668" filterUnits="userSpaceOnUse" color-interpolation-filters="sRGB">
<feFlood flood-opacity="0" result="BackgroundImageFix"/>
<feBlend mode="normal" in="SourceGraphic" in2="BackgroundImageFix" result="shape"/>
<feGaussianBlur stdDeviation="56.5083" result="effect1_foregroundBlur_2545_3958"/>
</filter>
<filter id="filter9_f_2545_3958" x="1027.18" y="108.587" width="957.593" height="987.014" filterUnits="userSpaceOnUse" color-interpolation-filters="sRGB">
<feFlood flood-opacity="0" result="BackgroundImageFix"/>
<feBlend mode="normal" in="SourceGraphic" in2="BackgroundImageFix" result="shape"/>
<feGaussianBlur stdDeviation="99.2713" result="effect1_foregroundBlur_2545_3958"/>
</filter>
<filter id="filter12_f_2545_3958" x="806.729" y="722.553" width="740.627" height="369.549" filterUnits="userSpaceOnUse" color-interpolation-filters="sRGB">
<feFlood flood-opacity="0" result="BackgroundImageFix"/>
<feBlend mode="normal" in="SourceGraphic" in2="BackgroundImageFix" result="shape"/>
<feGaussianBlur stdDeviation="18.1811" result="effect1_foregroundBlur_2545_3958"/>
</filter>
<filter id="filter13_f_2545_3958" x="906.535" y="693.189" width="823.336" height="455.049" filterUnits="userSpaceOnUse" color-interpolation-filters="sRGB">
<feFlood flood-opacity="0" result="BackgroundImageFix"/>
<feBlend mode="normal" in="SourceGraphic" in2="BackgroundImageFix" result="shape"/>
<feGaussianBlur stdDeviation="39.5707" result="effect1_foregroundBlur_2545_3958"/>
</filter>
<filter id="filter14_f_2545_3958" x="1037.8" y="673.914" width="942.948" height="529.84" filterUnits="userSpaceOnUse" color-interpolation-filters="sRGB">
<feFlood flood-opacity="0" result="BackgroundImageFix"/>
<feBlend mode="normal" in="SourceGraphic" in2="BackgroundImageFix" result="shape"/>
<feGaussianBlur stdDeviation="69.5161" result="effect1_foregroundBlur_2545_3958"/>
</filter>
<filter id="filter15_f_2545_3958" x="419.779" y="401.084" width="747.999" height="630.609" filterUnits="userSpaceOnUse" color-interpolation-filters="sRGB">
<feFlood flood-opacity="0" result="BackgroundImageFix"/>
<feBlend mode="normal" in="SourceGraphic" in2="BackgroundImageFix" result="shape"/>
<feGaussianBlur stdDeviation="3.53844" result="effect1_foregroundBlur_2545_3958"/>
</filter>
<filter id="filter16_f_2545_3958" x="396.121" y="369.518" width="783.384" height="665.994" filterUnits="userSpaceOnUse" color-interpolation-filters="sRGB">
<feFlood flood-opacity="0" result="BackgroundImageFix"/>
<feBlend mode="normal" in="SourceGraphic" in2="BackgroundImageFix" result="shape"/>
<feGaussianBlur stdDeviation="12.3845" result="effect1_foregroundBlur_2545_3958"/>
</filter>
<filter id="filter17_f_2545_3958" x="344.183" y="294.962" width="854.467" height="738.787" filterUnits="userSpaceOnUse" color-interpolation-filters="sRGB">
<feFlood flood-opacity="0" result="BackgroundImageFix"/>
<feBlend mode="normal" in="SourceGraphic" in2="BackgroundImageFix" result="shape"/>
<feGaussianBlur stdDeviation="30.0767" result="effect1_foregroundBlur_2545_3958"/>
</filter>
<filter id="filter18_f_2545_3958" x="224.374" y="110.721" width="995.69" height="878.3" filterUnits="userSpaceOnUse" color-interpolation-filters="sRGB">
<feFlood flood-opacity="0" result="BackgroundImageFix"/>
<feBlend mode="normal" in="SourceGraphic" in2="BackgroundImageFix" result="shape"/>
<feGaussianBlur stdDeviation="65.4612" result="effect1_foregroundBlur_2545_3958"/>
</filter>
<filter id="filter19_f_2545_3958" x="110.902" y="-132.479" width="1089.45" height="1054.79" filterUnits="userSpaceOnUse" color-interpolation-filters="sRGB">
<feFlood flood-opacity="0" result="BackgroundImageFix"/>
<feBlend mode="normal" in="SourceGraphic" in2="BackgroundImageFix" result="shape"/>
<feGaussianBlur stdDeviation="114.999" result="effect1_foregroundBlur_2545_3958"/>
</filter>
<filter id="filter20_f_2545_3958" x="462.548" y="536.19" width="379.725" height="481.718" filterUnits="userSpaceOnUse" color-interpolation-filters="sRGB">
<feFlood flood-opacity="0" result="BackgroundImageFix"/>
<feBlend mode="normal" in="SourceGraphic" in2="BackgroundImageFix" result="shape"/>
<feGaussianBlur stdDeviation="3.53844" result="effect1_foregroundBlur_2545_3958"/>
</filter>
<filter id="filter21_f_2545_3958" x="435.591" y="517.221" width="415.109" height="517.102" filterUnits="userSpaceOnUse" color-interpolation-filters="sRGB">
<feFlood flood-opacity="0" result="BackgroundImageFix"/>
<feBlend mode="normal" in="SourceGraphic" in2="BackgroundImageFix" result="shape"/>
<feGaussianBlur stdDeviation="12.3845" result="effect1_foregroundBlur_2545_3958"/>
</filter>
<filter id="filter22_f_2545_3958" x="373.957" y="478.321" width="487.399" height="587.894" filterUnits="userSpaceOnUse" color-interpolation-filters="sRGB">
<feFlood flood-opacity="0" result="BackgroundImageFix"/>
<feBlend mode="normal" in="SourceGraphic" in2="BackgroundImageFix" result="shape"/>
<feGaussianBlur stdDeviation="30.0767" result="effect1_foregroundBlur_2545_3958"/>
</filter>
<filter id="filter23_f_2545_3958" x="227.498" y="397.044" width="627.416" height="729.409" filterUnits="userSpaceOnUse" color-interpolation-filters="sRGB">
<feFlood flood-opacity="0" result="BackgroundImageFix"/>
<feBlend mode="normal" in="SourceGraphic" in2="BackgroundImageFix" result="shape"/>
<feGaussianBlur stdDeviation="65.4612" result="effect1_foregroundBlur_2545_3958"/>
</filter>
<filter id="filter24_f_2545_3958" x="25.7699" y="320.55" width="823.91" height="853.924" filterUnits="userSpaceOnUse" color-interpolation-filters="sRGB">
<feFlood flood-opacity="0" result="BackgroundImageFix"/>
<feBlend mode="normal" in="SourceGraphic" in2="BackgroundImageFix" result="shape"/>
<feGaussianBlur stdDeviation="114.999" result="effect1_foregroundBlur_2545_3958"/>
</filter>
<filter id="filter25_f_2545_3958" x="774.927" y="503.14" width="490.795" height="496.683" filterUnits="userSpaceOnUse" color-interpolation-filters="sRGB">
<feFlood flood-opacity="0" result="BackgroundImageFix"/>
<feBlend mode="normal" in="SourceGraphic" in2="BackgroundImageFix" result="shape"/>
<feGaussianBlur stdDeviation="3.53844" result="effect1_foregroundBlur_2545_3958"/>
</filter>
<filter id="filter26_f_2545_3958" x="749.496" y="492.821" width="526.179" height="532.067" filterUnits="userSpaceOnUse" color-interpolation-filters="sRGB">
<feFlood flood-opacity="0" result="BackgroundImageFix"/>
<feBlend mode="normal" in="SourceGraphic" in2="BackgroundImageFix" result="shape"/>
<feGaussianBlur stdDeviation="12.3845" result="effect1_foregroundBlur_2545_3958"/>
</filter>
<filter id="filter27_f_2545_3958" x="692.415" y="477.344" width="597.762" height="603.566" filterUnits="userSpaceOnUse" color-interpolation-filters="sRGB">
<feFlood flood-opacity="0" result="BackgroundImageFix"/>
<feBlend mode="normal" in="SourceGraphic" in2="BackgroundImageFix" result="shape"/>
<feGaussianBlur stdDeviation="30.0767" result="effect1_foregroundBlur_2545_3958"/>
</filter>
<filter id="filter28_f_2545_3958" x="558.181" y="467.764" width="738.486" height="744.374" filterUnits="userSpaceOnUse" color-interpolation-filters="sRGB">
<feFlood flood-opacity="0" result="BackgroundImageFix"/>
<feBlend mode="normal" in="SourceGraphic" in2="BackgroundImageFix" result="shape"/>
<feGaussianBlur stdDeviation="65.4612" result="effect1_foregroundBlur_2545_3958"/>
</filter>
<filter id="filter29_f_2545_3958" x="394.744" y="475.174" width="892.461" height="894.206" filterUnits="userSpaceOnUse" color-interpolation-filters="sRGB">
<feFlood flood-opacity="0" result="BackgroundImageFix"/>
<feBlend mode="normal" in="SourceGraphic" in2="BackgroundImageFix" result="shape"/>
<feGaussianBlur stdDeviation="114.999" result="effect1_foregroundBlur_2545_3958"/>
</filter>
<filter id="filter30_f_2545_3958" x="923.758" y="692.703" width="343.228" height="275.346" filterUnits="userSpaceOnUse" color-interpolation-filters="sRGB">
<feFlood flood-opacity="0" result="BackgroundImageFix"/>
<feBlend mode="normal" in="SourceGraphic" in2="BackgroundImageFix" result="shape"/>
<feGaussianBlur stdDeviation="3.53844" result="effect1_foregroundBlur_2545_3958"/>
</filter>
<filter id="filter31_f_2545_3958" x="907.498" y="681.474" width="378.613" height="310.73" filterUnits="userSpaceOnUse" color-interpolation-filters="sRGB">
<feFlood flood-opacity="0" result="BackgroundImageFix"/>
<feBlend mode="normal" in="SourceGraphic" in2="BackgroundImageFix" result="shape"/>
<feGaussianBlur stdDeviation="12.3845" result="effect1_foregroundBlur_2545_3958"/>
</filter>
<filter id="filter32_f_2545_3958" x="876.04" y="663.349" width="449.422" height="382.535" filterUnits="userSpaceOnUse" color-interpolation-filters="sRGB">
<feFlood flood-opacity="0" result="BackgroundImageFix"/>
<feBlend mode="normal" in="SourceGraphic" in2="BackgroundImageFix" result="shape"/>
<feGaussianBlur stdDeviation="30.0767" result="effect1_foregroundBlur_2545_3958"/>
</filter>
<filter id="filter33_f_2545_3958" x="817.124" y="646.424" width="590.919" height="523.036" filterUnits="userSpaceOnUse" color-interpolation-filters="sRGB">
<feFlood flood-opacity="0" result="BackgroundImageFix"/>
<feBlend mode="normal" in="SourceGraphic" in2="BackgroundImageFix" result="shape"/>
<feGaussianBlur stdDeviation="65.4612" result="effect1_foregroundBlur_2545_3958"/>
</filter>
<filter id="filter34_f_2545_3958" x="759.477" y="620.994" width="738.246" height="718.255" filterUnits="userSpaceOnUse" color-interpolation-filters="sRGB">
<feFlood flood-opacity="0" result="BackgroundImageFix"/>
<feBlend mode="normal" in="SourceGraphic" in2="BackgroundImageFix" result="shape"/>
<feGaussianBlur stdDeviation="114.999" result="effect1_foregroundBlur_2545_3958"/>
</filter>
<filter id="filter35_d_2545_3958" x="-305" y="128" width="2523" height="1830" filterUnits="userSpaceOnUse" color-interpolation-filters="sRGB">
<feFlood flood-opacity="0" result="BackgroundImageFix"/>
<feColorMatrix in="SourceAlpha" type="matrix" values="0 0 0 0 0 0 0 0 0 0 0 0 0 0 0 0 0 0 127 0" result="hardAlpha"/>
<feOffset dy="5"/>
<feGaussianBlur stdDeviation="25"/>
<feComposite in2="hardAlpha" operator="out"/>
<feColorMatrix type="matrix" values="0 0 0 0 0.807843 0 0 0 0 0.180392 0 0 0 0 0.317647 0 0 0 0.04 0"/>
<feBlend mode="normal" in2="BackgroundImageFix" result="effect1_dropShadow_2545_3958"/>
<feBlend mode="normal" in="SourceGraphic" in2="effect1_dropShadow_2545_3958" result="shape"/>
</filter>
<linearGradient id="paint0_linear_2545_3958" x1="1338.71" y1="837.768" x2="1338.71" y2="-128.494" gradientUnits="userSpaceOnUse">
<stop stop-color="white"/>
<stop offset="1" stop-color="white" stop-opacity="0"/>
</linearGradient>
<linearGradient id="paint1_linear_2545_3958" x1="2418.17" y1="937.949" x2="2418.17" y2="-28.312" gradientUnits="userSpaceOnUse">
<stop stop-color="white"/>
<stop offset="1" stop-color="white" stop-opacity="0"/>
</linearGradient>
<linearGradient id="paint2_linear_2545_3958" x1="2369.39" y1="1966.31" x2="2369.39" y2="796.112" gradientUnits="userSpaceOnUse">
<stop stop-color="white"/>
<stop offset="1" stop-color="white" stop-opacity="0"/>
</linearGradient>
<linearGradient id="paint3_linear_2545_3958" x1="748.898" y1="1176.96" x2="748.898" y2="148.658" gradientUnits="userSpaceOnUse">
<stop stop-color="white"/>
<stop offset="1" stop-color="white" stop-opacity="0"/>
</linearGradient>
<linearGradient id="paint4_linear_2545_3958" x1="562.769" y1="1656.03" x2="562.769" y2="1019.16" gradientUnits="userSpaceOnUse">
<stop stop-color="white"/>
<stop offset="1" stop-color="white" stop-opacity="0"/>
</linearGradient>
<linearGradient id="paint5_linear_2545_3958" x1="1373.76" y1="2149.17" x2="1373.76" y2="1421.32" gradientUnits="userSpaceOnUse">
<stop stop-color="white"/>
<stop offset="1" stop-color="white" stop-opacity="0"/>
</linearGradient>
<linearGradient id="paint6_linear_2545_3958" x1="1723.52" y1="1590.96" x2="1723.52" y2="1140.17" gradientUnits="userSpaceOnUse">
<stop stop-color="white"/>
<stop offset="1" stop-color="white" stop-opacity="0"/>
</linearGradient>
<linearGradient id="paint7_linear_2545_3958" x1="956.5" y1="1465.09" x2="956.5" y2="2020.14" gradientUnits="userSpaceOnUse">
<stop stop-color="white"/>
<stop offset="1" stop-color="#F6F4F3" stop-opacity="0.2"/>
</linearGradient>
<clipPath id="clip0_2545_3958">
<rect width="1920" height="724" fill="white"/>
</clipPath>
</defs>
</svg>
