<svg width="260" height="234" viewBox="0 0 260 234" fill="none" xmlns="http://www.w3.org/2000/svg">
<path d="M136.29 22.83C112.5 4.12288 92.3103 27.288 86.5 41.4999L83.5 49.4999C71 77.9999 52.6068 85.9291 37.5 86.9999C14.2587 91.9059 13.7026 112.905 18.7591 122.623C26.5 137.5 30.5 141 32.8324 156.206C34.0278 164 28.2625 190.37 35 200C53 230 80.2173 216.801 93 209.5C115.312 192.446 129.843 186 143 195.63C164 211 176 216.5 190.164 214.319C222.5 206.5 218.038 169.834 210 156.206C200.006 129.573 215.278 102.712 223.607 92.8806C246.848 57.1367 238.311 37.7817 227.64 31.219C214 22.83 190.107 36.7202 175 43.9235C157.5 49.4999 143.5 28.4999 136.29 22.83Z" fill="#F44169"/>
<path d="M138.752 10.3061C106.818 -9.17978 80.9457 25.5532 75.4584 37.0315C64 61.0001 46.4151 79.0636 29.7432 80.2399C4.09401 85.6292 3.88026 111.892 7.94138 123.227C14.4928 141.512 19.5 140.5 22.369 160.118C24.7648 176.5 16.5 180 25.5752 203.426C44.0426 236.789 71 233 90.9805 221.07C115.604 202.335 129.5 200.5 142.279 206.955C166.5 221.07 180 229.661 197.104 223.957C229.5 213.152 230.831 184 222.433 161.722C211.403 132.466 223.318 112.5 236.219 92.7509C261.868 53.4853 253.5 35.5001 238.463 22.8172C224.04 10.6514 198.066 22.2825 181.394 30.1955C163 38.9258 153 19.0002 138.752 10.3061Z" stroke="#063E79" stroke-width="8"/>
<path d="M126.338 139.933V138.548C126.374 132.121 126.977 127.007 128.149 123.207C129.357 119.408 131.061 116.354 133.263 114.045C135.464 111.702 138.146 109.553 141.306 107.6C143.472 106.251 145.408 104.777 147.112 103.179C148.852 101.545 150.219 99.7344 151.214 97.7457C152.208 95.7216 152.705 93.4666 152.705 90.9808C152.705 88.1754 152.048 85.7429 150.734 83.6832C149.42 81.6236 147.645 80.0256 145.408 78.8892C143.206 77.7528 140.738 77.1847 138.004 77.1847C135.482 77.1847 133.085 77.7351 130.812 78.8359C128.575 79.9013 126.711 81.5348 125.219 83.7365C123.763 85.9027 122.947 88.6548 122.769 91.9929H103.806C103.984 85.2457 105.617 79.5994 108.707 75.054C111.832 70.5085 115.951 67.0994 121.065 64.8267C126.214 62.554 131.896 61.4176 138.11 61.4176C144.893 61.4176 150.859 62.6072 156.008 64.9865C161.192 67.3658 165.223 70.7571 168.099 75.1605C171.011 79.5284 172.467 84.7131 172.467 90.7145C172.467 94.7628 171.81 98.3849 170.496 101.581C169.218 104.777 167.389 107.618 165.01 110.104C162.631 112.589 159.808 114.809 156.54 116.762C153.664 118.538 151.303 120.384 149.456 122.302C147.645 124.219 146.295 126.474 145.408 129.067C144.555 131.624 144.112 134.784 144.076 138.548V139.933H126.338ZM135.607 173.172C132.411 173.172 129.658 172.036 127.35 169.763C125.042 167.49 123.888 164.72 123.888 161.453C123.888 158.257 125.042 155.523 127.35 153.25C129.658 150.977 132.411 149.841 135.607 149.841C138.767 149.841 141.501 150.977 143.81 153.25C146.153 155.523 147.325 158.257 147.325 161.453C147.325 163.619 146.775 165.59 145.674 167.366C144.609 169.141 143.188 170.562 141.413 171.627C139.673 172.657 137.737 173.172 135.607 173.172Z" fill="white"/>
</svg>
