<svg width="72" height="72" viewBox="0 0 72 72" fill="none" xmlns="http://www.w3.org/2000/svg">
<circle cx="36" cy="36" r="32" fill="url(#paint0_linear_1800_2567)"/>
<g filter="url(#filter0_f_1800_2567)">
<circle cx="36" cy="36" r="21" fill="#65081D" fill-opacity="0.3"/>
</g>
<g clip-path="url(#clip0_1800_2567)">
<path d="M46.6207 33.5317L36 55L25.3793 33.5317H46.6207Z" fill="url(#paint1_linear_1800_2567)"/>
<path d="M25.3793 33.5317L18 31.2719L36 54.9999L25.3793 33.5317Z" fill="url(#paint2_linear_1800_2567)"/>
<path d="M46.6207 33.5317L54 31.2719L36 54.9999L46.6207 33.5317Z" fill="url(#paint3_linear_1800_2567)"/>
<path d="M42.5173 21H36H29.4828L25.3793 33.5317H36H46.6207L42.5173 21Z" fill="url(#paint4_linear_1800_2567)"/>
<path opacity="0.54" d="M36.6552 49.0081L35.4828 51.4049L27.2759 34.8329H29.6552L36.6552 49.0081Z" fill="url(#paint5_linear_1800_2567)"/>
<path opacity="0.54" d="M30.5862 21.7875H33.2759L29.6897 32.7442H27L30.5862 21.7875Z" fill="url(#paint6_linear_1800_2567)"/>
<path d="M46.6207 33.5317L54 31.2719L47.1034 21H42.5172L46.6207 33.5317Z" fill="url(#paint7_linear_1800_2567)"/>
<path d="M25.3793 33.5317L29.4828 21H24.8621L18 31.2719L25.3793 33.5317Z" fill="url(#paint8_linear_1800_2567)"/>
<path d="M49.3448 33.0181C47.4483 33.0181 46.0345 35.2094 46.0345 38.154C46.0345 35.2094 44.6207 33.0181 42.7241 33.0181C44.6207 33.0181 46.0345 30.7925 46.0345 27.8479C46.0345 30.7925 47.4483 33.0181 49.3448 33.0181Z" fill="white"/>
</g>
<defs>
<filter id="filter0_f_1800_2567" x="0" y="0" width="72" height="72" filterUnits="userSpaceOnUse" color-interpolation-filters="sRGB">
<feFlood flood-opacity="0" result="BackgroundImageFix"/>
<feBlend mode="normal" in="SourceGraphic" in2="BackgroundImageFix" result="shape"/>
<feGaussianBlur stdDeviation="7.5" result="effect1_foregroundBlur_1800_2567"/>
</filter>
<linearGradient id="paint0_linear_1800_2567" x1="-5.00001" y1="145" x2="62" y2="-15" gradientUnits="userSpaceOnUse">
<stop stop-color="#033F7A"/>
<stop offset="1" stop-color="#033F7A"/>
</linearGradient>
<linearGradient id="paint1_linear_1800_2567" x1="35.9932" y1="38.443" x2="35.9932" y2="67.3349" gradientUnits="userSpaceOnUse">
<stop stop-color="#99DEFF"/>
<stop offset="0.0913608" stop-color="#B2E6FE"/>
<stop offset="0.2133" stop-color="#CCEEFE"/>
<stop offset="0.3482" stop-color="#E0F4FE"/>
<stop offset="0.5012" stop-color="#EEF9FD"/>
<stop offset="0.6873" stop-color="#F6FBFD"/>
<stop offset="1" stop-color="#F9FCFD"/>
</linearGradient>
<linearGradient id="paint2_linear_1800_2567" x1="34.6116" y1="40.0552" x2="12.0694" y2="49.2686" gradientUnits="userSpaceOnUse">
<stop stop-color="#59C9FF"/>
<stop offset="1" stop-color="#F9FCFD"/>
</linearGradient>
<linearGradient id="paint3_linear_1800_2567" x1="37.7507" y1="42.8184" x2="61.9417" y2="43.8534" gradientUnits="userSpaceOnUse">
<stop stop-color="#59C9FF"/>
<stop offset="1" stop-color="#F9FCFD"/>
</linearGradient>
<linearGradient id="paint4_linear_1800_2567" x1="35.9933" y1="40.1535" x2="35.9933" y2="20.0184" gradientUnits="userSpaceOnUse">
<stop stop-color="#ACE4FF"/>
<stop offset="1" stop-color="#F9FCFD"/>
</linearGradient>
<linearGradient id="paint5_linear_1800_2567" x1="31.9632" y1="38.6389" x2="31.9632" y2="60.9337" gradientUnits="userSpaceOnUse">
<stop stop-color="#99DEFF"/>
<stop offset="0.0913608" stop-color="#B2E6FE"/>
<stop offset="0.2133" stop-color="#CCEEFE"/>
<stop offset="0.3482" stop-color="#E0F4FE"/>
<stop offset="0.5012" stop-color="#EEF9FD"/>
<stop offset="0.6873" stop-color="#F6FBFD"/>
<stop offset="1" stop-color="#F9FCFD"/>
</linearGradient>
<linearGradient id="paint6_linear_1800_2567" x1="30.1411" y1="38.5426" x2="30.1411" y2="20.9239" gradientUnits="userSpaceOnUse">
<stop stop-color="#ACE4FF"/>
<stop offset="1" stop-color="#F9FCFD"/>
</linearGradient>
<linearGradient id="paint7_linear_1800_2567" x1="48.2485" y1="37.9721" x2="48.2485" y2="18.3344" gradientUnits="userSpaceOnUse">
<stop stop-color="#59C9FF"/>
<stop offset="1" stop-color="#F9FCFD"/>
</linearGradient>
<linearGradient id="paint8_linear_1800_2567" x1="23.7381" y1="37.972" x2="23.7381" y2="18.3344" gradientUnits="userSpaceOnUse">
<stop stop-color="#59C9FF"/>
<stop offset="1" stop-color="#F9FCFD"/>
</linearGradient>
<clipPath id="clip0_1800_2567">
<rect width="36" height="34" fill="white" transform="translate(18 21)"/>
</clipPath>
</defs>
</svg>
