<svg width="32" height="32" viewBox="0 0 32 32" fill="none" xmlns="http://www.w3.org/2000/svg">
<path d="M16 2.66663L14.2647 9.60794C13.9261 10.9624 13.7568 11.6397 13.4041 12.1907C13.0922 12.6782 12.6783 13.0922 12.1908 13.4041C11.6397 13.7567 10.9625 13.926 9.60801 14.2646L2.66669 16L9.60801 17.7353C10.9625 18.0739 11.6397 18.2432 12.1908 18.5958C12.6783 18.9078 13.0922 19.3217 13.4041 19.8092C13.7568 20.3603 13.9261 21.0375 14.2647 22.392L16 29.3333L17.7354 22.392C18.074 21.0375 18.2433 20.3603 18.5959 19.8092C18.9078 19.3217 19.3218 18.9078 19.8092 18.5958C20.3603 18.2432 21.0376 18.0739 22.392 17.7353L29.3334 16L22.392 14.2646C21.0376 13.926 20.3603 13.7567 19.8092 13.4041C19.3218 13.0922 18.9078 12.6782 18.5959 12.1907C18.2433 11.6397 18.074 10.9624 17.7354 9.60795L16 2.66663Z" stroke="#EE3961" stroke-width="3" stroke-linecap="round" stroke-linejoin="round"/>
</svg>
